<mxfile host="www.draw.io" modified="2019-12-23T09:13:21.294Z" agent="Mozilla/5.0 (Windows NT 10.0; Win64; x64) AppleWebKit/537.36 (KHTML, like Gecko) Chrome/79.0.3945.88 Safari/537.36" etag="p-ITZAVnVPVZM8TGunwj" version="12.4.3" type="github" pages="1">
  <diagram id="CBEdxfzGY5nbtHUKABL2" name="Page-1">
    <mxGraphModel dx="964" dy="548" grid="1" gridSize="10" guides="1" tooltips="1" connect="1" arrows="1" fold="1" page="1" pageScale="1" pageWidth="850" pageHeight="1100" math="0" shadow="0">
      <root>
        <mxCell id="0"/>
        <mxCell id="1" parent="0"/>
        <mxCell id="dqLwvi6JEX2pyHBHNMYS-1" value="User(Coach , Athlete)" style="shape=umlLifeline;participant=umlActor;perimeter=lifelinePerimeter;whiteSpace=wrap;html=1;container=1;collapsible=0;recursiveResize=0;verticalAlign=top;spacingTop=36;labelBackgroundColor=#ffffff;outlineConnect=0;" parent="1" vertex="1">
          <mxGeometry x="150" y="120" width="20" height="760" as="geometry"/>
        </mxCell>
        <mxCell id="dqLwvi6JEX2pyHBHNMYS-7" value="" style="html=1;points=[];perimeter=orthogonalPerimeter;" parent="dqLwvi6JEX2pyHBHNMYS-1" vertex="1">
          <mxGeometry x="5" y="90" width="10" height="210" as="geometry"/>
        </mxCell>
        <mxCell id="dqLwvi6JEX2pyHBHNMYS-19" value="" style="html=1;points=[];perimeter=orthogonalPerimeter;" parent="dqLwvi6JEX2pyHBHNMYS-1" vertex="1">
          <mxGeometry x="5" y="360" width="10" height="150" as="geometry"/>
        </mxCell>
        <mxCell id="dqLwvi6JEX2pyHBHNMYS-26" value="" style="html=1;points=[];perimeter=orthogonalPerimeter;" parent="dqLwvi6JEX2pyHBHNMYS-1" vertex="1">
          <mxGeometry x="5" y="560" width="10" height="180" as="geometry"/>
        </mxCell>
        <mxCell id="dqLwvi6JEX2pyHBHNMYS-2" value="&amp;lt;&amp;lt; System API : Support &amp;gt;&amp;gt;" style="shape=umlLifeline;perimeter=lifelinePerimeter;whiteSpace=wrap;html=1;container=1;collapsible=0;recursiveResize=0;outlineConnect=0;" parent="1" vertex="1">
          <mxGeometry x="340" y="120" width="100" height="760" as="geometry"/>
        </mxCell>
        <mxCell id="dqLwvi6JEX2pyHBHNMYS-8" value="" style="html=1;points=[];perimeter=orthogonalPerimeter;" parent="dqLwvi6JEX2pyHBHNMYS-2" vertex="1">
          <mxGeometry x="45" y="90" width="10" height="210" as="geometry"/>
        </mxCell>
        <mxCell id="dqLwvi6JEX2pyHBHNMYS-21" value="" style="html=1;points=[];perimeter=orthogonalPerimeter;" parent="dqLwvi6JEX2pyHBHNMYS-2" vertex="1">
          <mxGeometry x="45" y="360" width="10" height="140" as="geometry"/>
        </mxCell>
        <mxCell id="dqLwvi6JEX2pyHBHNMYS-23" value="getTickets()" style="html=1;verticalAlign=bottom;endArrow=block;entryX=0.06;entryY=0.018;entryDx=0;entryDy=0;entryPerimeter=0;" parent="dqLwvi6JEX2pyHBHNMYS-2" target="dqLwvi6JEX2pyHBHNMYS-22" edge="1">
          <mxGeometry width="80" relative="1" as="geometry">
            <mxPoint x="60" y="380" as="sourcePoint"/>
            <mxPoint x="140" y="380" as="targetPoint"/>
          </mxGeometry>
        </mxCell>
        <mxCell id="dqLwvi6JEX2pyHBHNMYS-28" value="" style="html=1;points=[];perimeter=orthogonalPerimeter;" parent="dqLwvi6JEX2pyHBHNMYS-2" vertex="1">
          <mxGeometry x="45" y="560" width="10" height="180" as="geometry"/>
        </mxCell>
        <mxCell id="dqLwvi6JEX2pyHBHNMYS-30" value="DeleteTicket()" style="html=1;verticalAlign=bottom;endArrow=block;" parent="dqLwvi6JEX2pyHBHNMYS-2" edge="1">
          <mxGeometry width="80" relative="1" as="geometry">
            <mxPoint x="60" y="630" as="sourcePoint"/>
            <mxPoint x="230" y="630" as="targetPoint"/>
          </mxGeometry>
        </mxCell>
        <mxCell id="dqLwvi6JEX2pyHBHNMYS-3" value=":Support" style="shape=umlLifeline;perimeter=lifelinePerimeter;whiteSpace=wrap;html=1;container=1;collapsible=0;recursiveResize=0;outlineConnect=0;" parent="1" vertex="1">
          <mxGeometry x="530" y="120" width="100" height="760" as="geometry"/>
        </mxCell>
        <mxCell id="dqLwvi6JEX2pyHBHNMYS-16" value="" style="html=1;points=[];perimeter=orthogonalPerimeter;" parent="dqLwvi6JEX2pyHBHNMYS-3" vertex="1">
          <mxGeometry x="45" y="180" width="10" height="90" as="geometry"/>
        </mxCell>
        <mxCell id="dqLwvi6JEX2pyHBHNMYS-22" value="" style="html=1;points=[];perimeter=orthogonalPerimeter;" parent="dqLwvi6JEX2pyHBHNMYS-3" vertex="1">
          <mxGeometry x="45" y="380" width="10" height="90" as="geometry"/>
        </mxCell>
        <mxCell id="dqLwvi6JEX2pyHBHNMYS-31" value="" style="html=1;points=[];perimeter=orthogonalPerimeter;" parent="dqLwvi6JEX2pyHBHNMYS-3" vertex="1">
          <mxGeometry x="45" y="630" width="10" height="80" as="geometry"/>
        </mxCell>
        <mxCell id="dqLwvi6JEX2pyHBHNMYS-11" value="Create New Support Subject and Message" style="html=1;verticalAlign=bottom;endArrow=block;" parent="1" edge="1">
          <mxGeometry width="80" relative="1" as="geometry">
            <mxPoint x="170" y="218" as="sourcePoint"/>
            <mxPoint x="380" y="218" as="targetPoint"/>
          </mxGeometry>
        </mxCell>
        <mxCell id="dqLwvi6JEX2pyHBHNMYS-13" value="Enter The Subject and Message" style="html=1;verticalAlign=bottom;endArrow=block;" parent="1" edge="1">
          <mxGeometry width="80" relative="1" as="geometry">
            <mxPoint x="170" y="250" as="sourcePoint"/>
            <mxPoint x="380" y="251" as="targetPoint"/>
          </mxGeometry>
        </mxCell>
        <mxCell id="dqLwvi6JEX2pyHBHNMYS-14" value="SendTicketToSupport()" style="html=1;verticalAlign=bottom;endArrow=block;" parent="1" edge="1">
          <mxGeometry width="80" relative="1" as="geometry">
            <mxPoint x="400" y="300" as="sourcePoint"/>
            <mxPoint x="570" y="300" as="targetPoint"/>
          </mxGeometry>
        </mxCell>
        <mxCell id="dqLwvi6JEX2pyHBHNMYS-15" value="Click On Send Button" style="html=1;verticalAlign=bottom;endArrow=block;" parent="1" edge="1">
          <mxGeometry width="80" relative="1" as="geometry">
            <mxPoint x="170" y="280" as="sourcePoint"/>
            <mxPoint x="380" y="280" as="targetPoint"/>
          </mxGeometry>
        </mxCell>
        <mxCell id="dqLwvi6JEX2pyHBHNMYS-17" value="Return Response Message" style="html=1;verticalAlign=bottom;endArrow=open;dashed=1;endSize=8;" parent="1" edge="1">
          <mxGeometry x="-0.0588" y="-10" relative="1" as="geometry">
            <mxPoint x="570" y="390" as="sourcePoint"/>
            <mxPoint x="400" y="390" as="targetPoint"/>
            <mxPoint as="offset"/>
          </mxGeometry>
        </mxCell>
        <mxCell id="dqLwvi6JEX2pyHBHNMYS-18" value="Return Send Ticket Response Message" style="html=1;verticalAlign=bottom;endArrow=open;dashed=1;endSize=8;entryX=1.02;entryY=0.999;entryDx=0;entryDy=0;entryPerimeter=0;" parent="1" target="dqLwvi6JEX2pyHBHNMYS-7" edge="1">
          <mxGeometry relative="1" as="geometry">
            <mxPoint x="380" y="420" as="sourcePoint"/>
            <mxPoint x="300" y="420" as="targetPoint"/>
          </mxGeometry>
        </mxCell>
        <mxCell id="dqLwvi6JEX2pyHBHNMYS-20" value="Click On Get Tickets" style="html=1;verticalAlign=bottom;endArrow=block;" parent="1" target="dqLwvi6JEX2pyHBHNMYS-2" edge="1">
          <mxGeometry width="80" relative="1" as="geometry">
            <mxPoint x="170" y="480" as="sourcePoint"/>
            <mxPoint x="250" y="480" as="targetPoint"/>
          </mxGeometry>
        </mxCell>
        <mxCell id="dqLwvi6JEX2pyHBHNMYS-24" value="return Tickets List" style="html=1;verticalAlign=bottom;endArrow=open;dashed=1;endSize=8;" parent="1" edge="1">
          <mxGeometry relative="1" as="geometry">
            <mxPoint x="570" y="590" as="sourcePoint"/>
            <mxPoint x="400" y="590" as="targetPoint"/>
          </mxGeometry>
        </mxCell>
        <mxCell id="dqLwvi6JEX2pyHBHNMYS-25" value="return Ticket List Information To Read" style="html=1;verticalAlign=bottom;endArrow=open;dashed=1;endSize=8;entryX=1.5;entryY=0.933;entryDx=0;entryDy=0;entryPerimeter=0;" parent="1" target="dqLwvi6JEX2pyHBHNMYS-19" edge="1">
          <mxGeometry relative="1" as="geometry">
            <mxPoint x="380" y="620" as="sourcePoint"/>
            <mxPoint x="300" y="620" as="targetPoint"/>
          </mxGeometry>
        </mxCell>
        <mxCell id="dqLwvi6JEX2pyHBHNMYS-27" value="Click On Specific Ticket To Delete" style="html=1;verticalAlign=bottom;endArrow=block;" parent="1" edge="1">
          <mxGeometry width="80" relative="1" as="geometry">
            <mxPoint x="170" y="680" as="sourcePoint"/>
            <mxPoint x="380" y="680" as="targetPoint"/>
          </mxGeometry>
        </mxCell>
        <mxCell id="dqLwvi6JEX2pyHBHNMYS-29" value="Click On Delete Ticket" style="html=1;verticalAlign=bottom;endArrow=block;" parent="1" edge="1">
          <mxGeometry width="80" relative="1" as="geometry">
            <mxPoint x="170" y="710" as="sourcePoint"/>
            <mxPoint x="380" y="710" as="targetPoint"/>
          </mxGeometry>
        </mxCell>
        <mxCell id="dqLwvi6JEX2pyHBHNMYS-33" value="Return Delete Ticket Response" style="html=1;verticalAlign=bottom;endArrow=open;dashed=1;endSize=8;" parent="1" edge="1">
          <mxGeometry relative="1" as="geometry">
            <mxPoint x="570" y="830" as="sourcePoint"/>
            <mxPoint x="400" y="830" as="targetPoint"/>
          </mxGeometry>
        </mxCell>
        <mxCell id="dqLwvi6JEX2pyHBHNMYS-34" value="Return Delete Ticket Status" style="html=1;verticalAlign=bottom;endArrow=open;dashed=1;endSize=8;" parent="1" edge="1">
          <mxGeometry relative="1" as="geometry">
            <mxPoint x="380" y="860" as="sourcePoint"/>
            <mxPoint x="170" y="860" as="targetPoint"/>
          </mxGeometry>
        </mxCell>
      </root>
    </mxGraphModel>
  </diagram>
</mxfile>
